HIERARCHY
ROOT SpineBase
{
  OFFSET 0.000000 0.000000 0.000000
  CHANNELS 6 Xposition Yposition Zposition Zrotation Xrotation Yrotation
  JOINT SpineMid
  {
    OFFSET 0.000000 31.025397 0.000000
    CHANNELS 3 Zrotation Xrotation Yrotation
    JOINT SpineShoulder
    {
      OFFSET -0.193495 23.048707 -0.748815
      CHANNELS 3 Zrotation Xrotation Yrotation
      JOINT Neck
      {
        OFFSET -0.068049 7.622544 -0.575174
        CHANNELS 3 Zrotation Xrotation Yrotation
        JOINT Head
        {
          OFFSET -6.378752 11.523320 1.249568
          CHANNELS 3 Zrotation Xrotation Yrotation
          End Site
          {
            OFFSET 0 0 0
          }
        }
      }
      JOINT ShoulderLeft
      {
        OFFSET -10.508210 -2.606889 9.787438
        CHANNELS 3 Zrotation Xrotation Yrotation
        JOINT ElbowLeft
        {
          OFFSET -0.428337 -23.373959 1.717470
          CHANNELS 3 Zrotation Xrotation Yrotation
          JOINT WristLeft
          {
            OFFSET -0.868718 -8.174332 -22.981582
            CHANNELS 3 Zrotation Xrotation Yrotation
            JOINT HandLeft
            {
              OFFSET 5.871319 -4.714577 3.007181
              CHANNELS 3 Zrotation Xrotation Yrotation
              JOINT HandTipLeft
              {
                OFFSET 1.526001 -4.821182 0.124610
                CHANNELS 3 Zrotation Xrotation Yrotation
                End Site
                {
                  OFFSET 0 0 0
                }
              }
              JOINT ThumbLeft
              {
                OFFSET -2.262415 -6.019888 0.247689
                CHANNELS 3 Zrotation Xrotation Yrotation
                End Site
                {
                  OFFSET 0 0 0
                }
              }
            }
          }
        }
      }
      JOINT ShoulderRight
      {
        OFFSET 5.563830 -5.292720 -13.250296
        CHANNELS 3 Zrotation Xrotation Yrotation
        JOINT ElbowRight
        {
          OFFSET 0.193742 -25.975147 -6.676978
          CHANNELS 3 Zrotation Xrotation Yrotation
          JOINT WristRight
          {
            OFFSET -8.750707 -23.958411 0.314797
            CHANNELS 3 Zrotation Xrotation Yrotation
            JOINT HandRight
            {
              OFFSET -0.006598 -6.432515 1.532081
              CHANNELS 3 Zrotation Xrotation Yrotation
              JOINT HandTipRight
              {
                OFFSET -5.632228 -5.028098 -7.994471
                CHANNELS 3 Zrotation Xrotation Yrotation
                End Site
                {
                  OFFSET 0 0 0
                }
              }
              JOINT ThumbRight
              {
                OFFSET 3.247294 -3.814215 0.696124
                CHANNELS 3 Zrotation Xrotation Yrotation
                End Site
                {
                  OFFSET 0 0 0
                }
              }
            }
          }
        }
      }
    }
  }
  JOINT HipLeft
  {
    OFFSET -4.946270 0.918905 1.145753
    CHANNELS 3 Zrotation Xrotation Yrotation
    JOINT KneeLeft
    {
      OFFSET 15.856224 -32.124015 8.509611
      CHANNELS 3 Zrotation Xrotation Yrotation
      JOINT AnkleLeft
      {
        OFFSET 1.327597 -30.330682 3.349812
        CHANNELS 3 Zrotation Xrotation Yrotation
        JOINT FootLeft
        {
          OFFSET -7.610900 -2.525997 -7.568586
          CHANNELS 3 Zrotation Xrotation Yrotation
          End Site
          {
            OFFSET 0 0 0
          }
        }
      }
    }
  }
  JOINT HipRight
  {
    OFFSET 4.611872 1.046536 -8.001872
    CHANNELS 3 Zrotation Xrotation Yrotation
    JOINT KneeRight
    {
      OFFSET -1.949767 -28.416131 -0.433588
      CHANNELS 3 Zrotation Xrotation Yrotation
      JOINT AnkleRight
      {
        OFFSET -0.313752 -38.692519 5.666799
        CHANNELS 3 Zrotation Xrotation Yrotation
        JOINT FootRight
        {
          OFFSET -5.043903 -6.909714 0.172612
          CHANNELS 3 Zrotation Xrotation Yrotation
          End Site
          {
            OFFSET 0 0 0
          }
        }
      }
    }
  }
}
MOTION
Frames: 12
Frame Time: 0.033333
18.637610 161.637961 312.755222 3.041874 1.899776 27.280796 0.334452 -0.643604 -27.177871 0.925592 -0.310613 0.248617 -12.890826 -1.652187 0.002050 0.000000 0.000000 0.000000 -4.567675 -1.143257 -0.400488 -0.000000 0.000000 0.000000 13.859544 9.931040 18.161481 -27.073634 20.897586 -11.967661 0.000000 0.000000 0.000000 0.000000 0.000000 0.000000 0.424489 0.300286 -1.629690 -3.386252 -1.773131 1.345639 -7.250977 21.014647 -0.432517 39.019161 -48.861666 33.774974 0.000000 0.000000 0.000000 0.000000 0.000000 0.000000 -8.245971 -3.020919 -30.504782 8.284365 1.259406 3.063414 1.150490 -2.372452 -2.565322 0.000000 0.000000 0.000000 -14.185631 6.712945 -26.647249 12.139496 -3.227581 -0.014833 -12.750875 25.233783 -13.331953 0.000000 0.000000 0.000000
19.940914 158.978833 312.179780 4.333946 1.229200 16.613992 0.426199 -0.642867 -16.466773 0.864258 -0.199371 0.291337 -13.359794 -1.269463 -0.217543 0.000000 0.000000 0.000000 -5.794901 -0.492919 -0.467044 -0.000000 0.000000 0.000000 13.385719 11.654211 19.933192 -33.028565 22.821352 -13.067300 0.000000 0.000000 0.000000 0.000000 0.000000 0.000000 -8.757274 2.709798 0.376640 13.183631 -2.738353 -0.241808 -12.784446 16.167333 -0.264800 29.257322 -42.487159 16.050795 0.000000 0.000000 0.000000 0.000000 0.000000 0.000000 -11.019717 -5.943653 -21.964165 10.282479 4.369196 4.502739 -1.349293 -1.487119 3.109664 0.000000 0.000000 0.000000 -16.234188 9.261022 -15.867315 11.573579 -8.522806 0.243288 -18.218066 27.871787 -11.554244 0.000000 0.000000 0.000000
20.654665 157.584250 308.670188 5.197633 1.307464 -0.388391 0.252838 -0.365306 0.534370 0.966093 -0.335056 0.331512 -13.106054 -0.808942 -0.034536 0.000000 0.000000 0.000000 -6.419897 -0.552856 -0.520942 -0.000000 0.000000 0.000000 14.307670 14.886705 23.825557 -32.151679 30.198150 -14.917126 0.000000 0.000000 0.000000 0.000000 0.000000 0.000000 -17.881896 0.521285 2.436966 29.801956 0.489018 -3.509200 -16.537708 8.221416 0.720345 27.673221 -41.666371 10.706853 0.000000 0.000000 0.000000 0.000000 0.000000 0.000000 -10.349393 -15.576520 -8.815254 10.277081 10.422401 6.820663 -14.092425 9.637615 7.993320 0.000000 0.000000 0.000000 -16.648092 6.995094 0.434642 4.914097 -11.868966 -0.843265 -18.863507 25.569316 -8.329274 0.000000 0.000000 0.000000
21.574279 152.622686 306.451286 5.833880 1.305995 11.962304 -0.178481 -0.230045 -11.822992 0.956487 -0.482049 0.350765 -12.081093 0.209827 0.428456 0.000000 0.000000 0.000000 -6.669343 -0.505103 -0.537854 -0.000000 0.000000 0.000000 12.641942 17.313261 26.323328 -31.755394 32.033602 -17.036206 0.000000 0.000000 0.000000 0.000000 0.000000 0.000000 -26.585713 -6.155594 3.459779 45.425371 7.280529 -10.594169 -19.676971 5.602166 1.884277 30.248706 -46.981492 15.875727 0.000000 0.000000 0.000000 0.000000 0.000000 0.000000 -16.275882 -15.725740 -23.765297 11.667851 14.771125 7.985464 -25.862090 14.972298 15.881747 0.000000 0.000000 0.000000 -15.871139 9.022493 -11.551077 1.752578 -13.976900 -2.148359 -12.824255 26.037257 -6.219295 0.000000 0.000000 0.000000
22.788672 144.316906 306.239987 6.209332 1.361801 22.305023 -0.519003 0.125889 -22.184732 0.800445 -0.512752 0.338990 -10.554061 1.009121 0.874492 0.000000 0.000000 0.000000 -6.489307 -0.714107 -0.537061 -0.000000 0.000000 0.000000 2.410940 24.824281 35.420408 -23.610116 28.752936 -26.828188 0.000000 0.000000 0.000000 0.000000 0.000000 0.000000 -31.191691 -16.667730 2.008894 56.406798 16.438422 -21.094767 -32.999474 33.327786 0.742386 89.484157 -61.840622 87.052637 0.000000 0.000000 0.000000 0.000000 0.000000 0.000000 -22.372395 -16.272418 -37.426794 17.466866 20.660534 8.046332 -40.313098 20.369978 19.963555 0.000000 0.000000 0.000000 -19.287754 11.535658 -20.966010 2.390404 -18.772599 -3.824404 -7.959787 39.896458 -8.433390 0.000000 0.000000 0.000000
24.198279 131.794560 307.689513 6.253134 1.493998 32.645102 -0.615591 0.645858 -32.556631 0.582552 -0.483263 0.306283 -9.457733 0.872088 0.985225 0.000000 0.000000 0.000000 -5.979226 -1.175284 -0.523294 -0.000000 0.000000 0.000000 -16.153386 29.666991 45.870505 -12.557391 22.747446 -31.375381 0.000000 0.000000 0.000000 0.000000 0.000000 0.000000 -37.279974 -32.013564 -2.271324 69.998667 27.518052 -38.237581 -40.462713 60.308090 4.968086 136.876296 -46.047749 147.653147 0.000000 0.000000 0.000000 0.000000 0.000000 0.000000 -28.298909 -14.073500 -50.080732 21.083016 31.794356 7.238606 -45.622537 21.141688 11.482994 0.000000 0.000000 0.000000 -29.099552 15.342120 -28.613952 7.445146 -27.202778 -7.312267 12.978489 71.163441 -30.139418 0.000000 0.000000 0.000000
27.405172 116.256073 311.007277 6.398245 1.627975 33.161476 -0.702158 0.600444 -33.075498 0.450481 -0.492043 0.298868 -10.656055 1.781393 1.691321 0.000000 0.000000 0.000000 -5.942923 -1.207590 -0.522128 -0.000000 0.000000 0.000000 -28.757286 28.094443 44.312987 -8.012476 35.861357 -13.848867 0.000000 0.000000 0.000000 0.000000 0.000000 0.000000 -47.854524 -51.376257 -12.832358 89.537246 37.476824 -64.245554 116.553605 63.606493 -72.596725 168.327669 -42.283802 -88.935242 0.000000 0.000000 0.000000 0.000000 0.000000 0.000000 -31.974329 -15.406568 -53.369772 -1.131202 77.659931 23.425225 -36.068213 -14.856519 -22.174656 0.000000 0.000000 0.000000 -62.337367 16.735969 -21.146852 28.930130 -34.370262 -16.206832 131.385521 78.527378 -148.694450 0.000000 0.000000 0.000000
32.136030 92.641190 315.902118 5.915839 2.457238 16.395632 -0.776311 0.105832 -16.345602 0.267640 -0.441415 0.265193 -11.943077 1.967498 2.371041 0.000000 0.000000 0.000000 -5.422884 -1.858185 -0.513684 -0.000000 0.000000 0.000000 -42.856992 27.786848 47.298267 -10.634791 46.489802 5.340703 0.000000 0.000000 0.000000 0.000000 0.000000 0.000000 -71.342880 -70.629684 -41.827318 112.410091 44.677530 -97.115617 155.266104 54.517963 -129.463201 151.310827 -14.291963 -100.420227 0.000000 0.000000 0.000000 0.000000 0.000000 0.000000 -28.312651 -27.161784 -40.755674 -148.364731 7.933566 124.228416 136.193594 -50.306125 77.271565 0.000000 0.000000 0.000000 -126.140746 -4.610405 -18.485289 38.813753 -43.609751 -62.246922 157.806222 37.435720 -171.361588 0.000000 0.000000 0.000000
32.105099 79.903880 319.817651 6.031078 2.438961 0.761396 -0.655837 -0.163236 -0.701773 0.208438 -0.417901 0.269261 -14.393544 2.636614 3.050310 0.000000 0.000000 0.000000 -5.600069 -1.806518 -0.526991 -0.000000 0.000000 0.000000 -45.388886 26.807799 43.243008 -3.281278 30.523569 -1.338891 0.000000 0.000000 0.000000 0.000000 0.000000 0.000000 -132.349452 -79.319232 -113.598933 134.928532 50.848811 -132.016987 168.619882 59.996547 172.332366 151.692776 9.049903 -141.519378 0.000000 0.000000 0.000000 0.000000 0.000000 0.000000 -21.057873 -34.674829 -25.531696 -149.884439 -4.765657 105.974664 162.261923 -10.457771 61.528656 0.000000 0.000000 0.000000 -152.797386 -11.103518 -31.384822 18.072550 -48.029069 -110.537812 152.609218 18.723811 176.227587 0.000000 0.000000 0.000000
27.944281 76.052526 327.411409 6.357695 -2.784722 2.160021 -0.647529 0.018398 -1.827363 0.736267 0.013021 0.280060 -13.724765 6.757707 3.373047 0.000000 0.000000 0.000000 -6.423830 2.825081 -0.302150 -0.000000 0.000000 0.000000 -46.480682 23.562587 25.577366 17.080319 -9.764880 -4.723389 0.000000 0.000000 0.000000 0.000000 0.000000 0.000000 168.066927 -83.296022 171.187615 160.617632 59.742928 -170.849018 -171.481952 66.116702 138.745065 161.296932 2.331489 -166.641601 0.000000 0.000000 0.000000 0.000000 0.000000 0.000000 -21.504398 -28.388006 -24.704083 -148.697381 -6.619578 97.513479 -175.822180 5.201974 50.274618 0.000000 0.000000 0.000000 -159.655124 -7.166498 -8.424965 -31.082988 -50.878747 167.444702 142.565817 26.207569 155.951050 0.000000 0.000000 0.000000
18.412999 87.399803 325.327866 8.124025 -3.207690 -8.745221 -0.636196 -0.051324 9.203656 -0.325576 0.118048 0.297259 -14.028514 6.930878 3.234572 0.000000 0.000000 0.000000 -7.132240 3.109486 -0.318100 -0.000000 0.000000 0.000000 -32.144388 17.928455 12.274122 5.481426 -4.544072 -2.372870 0.000000 0.000000 0.000000 0.000000 0.000000 0.000000 170.930813 -69.740446 173.366423 166.263843 46.605095 -179.330399 -139.963515 71.777010 94.787918 160.840702 -8.100279 167.447293 0.000000 0.000000 0.000000 0.000000 0.000000 0.000000 -20.199560 -34.729212 -16.058226 -145.850508 -11.322116 92.375764 -176.204269 3.276959 46.908925 0.000000 0.000000 0.000000 -164.481194 -4.957588 0.400161 -66.727941 -29.873459 99.775503 143.151493 48.369289 128.288566 0.000000 0.000000 0.000000
11.238504 101.438706 318.215075 9.246779 0.559990 -33.470440 -0.364660 -0.248891 33.713904 -1.128810 0.185569 0.277881 -14.244461 3.142645 2.377079 0.000000 0.000000 0.000000 -7.682664 -0.655652 -0.630557 -0.000000 0.000000 0.000000 -29.179966 15.281562 6.972302 1.945807 -1.422296 1.382630 0.000000 0.000000 0.000000 0.000000 0.000000 0.000000 176.746119 -52.480762 -169.482776 159.945220 29.675420 -167.357876 -90.301554 72.670088 46.083473 152.126879 -18.666921 132.318478 0.000000 0.000000 0.000000 0.000000 0.000000 0.000000 -0.698443 -47.124608 12.193641 -142.491093 -15.104112 88.951774 -173.087402 3.799555 49.082294 0.000000 0.000000 0.000000 -167.691737 -9.015692 -31.381588 -96.771342 -22.417443 52.278603 -124.209840 77.238073 25.659139 0.000000 0.000000 0.000000
